<svg id="logo" xmlns="http://www.w3.org/2000/svg" width="235.517" height="165.264" viewBox="0 0 235.517 165.264">
  <path id="Path_2" data-name="Path 2" d="M364.645,57.973c-40.706,2.574-68.283,44.28-59.458,92.1s56.752,84.241,106.488,69.828,56.767-44.566,42.364-58.968-30.681-21.658-34.017-50.436S402.058,55.608,364.645,57.973Z" transform="translate(-268.693 -57.824)" fill="#fef4ef"/>
  <text id="SEMA" transform="translate(125.407 66.199)" fill="#2d132c" font-size="40.478" font-family="Raleway-Black, Raleway" font-weight="800" letter-spacing="0.37em"><tspan x="-77.818" y="0">SEMA</tspan></text>
  <text id="NTIC" transform="translate(74.01 117.102)" fill="#2d132c" font-size="40.478" font-family="Raleway-Black, Raleway" font-weight="800" letter-spacing="0.37em"><tspan x="-70.755" y="0">NTIC</tspan></text>
  <text id="CHAT" transform="translate(100.783 138.742)" fill="#2d132c" font-size="10.601" font-family="Raleway-Black, Raleway" font-weight="800" letter-spacing="0.57em"><tspan x="0" y="0">CHAT</tspan></text>
  <rect id="Rectangle_6" data-name="Rectangle 6" width="46.558" height="1.928" transform="translate(188.959 97.552)" fill="#2d132c"/>
  <rect id="Rectangle_7" data-name="Rectangle 7" width="34.029" height="1.928" transform="translate(0 50.732)" fill="#2d132c"/>
  <path id="Path_3" data-name="Path 3" d="M404.784,160.3a3.718,3.718,0,1,1,3.717-3.718A3.723,3.723,0,0,1,404.784,160.3Zm0-5.508a1.79,1.79,0,1,0,1.79,1.79A1.792,1.792,0,0,0,404.784,154.789Z" transform="translate(-238.693 -57.824)" fill="#2d132c"/>
</svg>
